# Blender v2.70 (sub 0) OBJ File: 'pokecenter.blend'
# www.blender.org
mtllib pokecenter.mtl
o Plane
v -1.000000 0.000000 0.500000
v 0.000000 0.000000 0.000000
v -1.000000 0.000000 -0.500000
v -1.000000 0.600000 0.000000
v 0.000000 0.000000 -0.600000
v -1.000000 0.000000 0.000000
v 0.000000 0.000000 -0.500000
v -0.400000 0.000000 -0.600000
v -0.100000 0.000000 0.600000
v -1.000000 0.500000 0.000000
v 0.000000 0.500000 -0.500000
v 0.200000 0.000000 0.500000
v -0.100000 0.500000 0.600000
v 0.900000 0.000000 0.000000
v -0.900000 0.000000 -0.600000
v -0.900000 0.000000 0.600000
v -0.900000 0.000000 0.000000
v -0.200000 0.000000 0.500000
v 0.100000 0.000000 0.600000
v 1.000000 0.000000 0.000000
v 0.400000 0.000000 -0.600000
v -0.400000 0.500000 -0.600000
v 0.000000 0.000000 0.500000
v 0.000000 0.500000 -0.600000
v 0.900000 0.000000 0.600000
v 0.900000 0.000000 -0.600000
v 0.100000 0.000000 0.500000
v 0.900000 0.000000 0.500000
v -0.900000 0.000000 -0.500000
v -0.900000 0.000000 0.500000
v -0.100000 0.000000 0.500000
v 0.900000 0.000000 -0.500000
v -1.000000 0.500000 -0.500000
v -1.000000 0.500000 0.500000
v 1.000000 0.000000 -0.500000
v 1.000000 0.000000 0.500000
v 0.200000 0.500000 0.500000
v 0.900000 0.500000 0.000000
v -0.900000 0.500000 -0.600000
v -0.900000 0.500000 0.600000
v -0.900000 0.500000 0.000000
v -0.200000 0.500000 0.500000
v 0.100000 0.500000 0.600000
v 1.000000 0.500000 0.000000
v 0.400000 0.500000 -0.600000
v 0.900000 0.500000 0.600000
v 0.900000 0.500000 -0.600000
v 0.100000 0.500000 0.500000
v 0.900000 0.500000 0.500000
v -0.900000 0.500000 -0.500000
v -0.900000 0.500000 0.500000
v -0.100000 0.500000 0.500000
v 0.900000 0.500000 -0.500000
v 1.000000 0.500000 -0.500000
v 1.000000 0.500000 0.500000
v 0.000000 0.600000 -0.500000
v -0.100000 0.600000 0.600000
v -0.400000 0.600000 -0.600000
v 0.000000 0.600000 -0.600000
v 0.000000 0.600000 0.600000
v -1.000000 0.600000 -0.500000
v -1.000000 0.600000 0.500000
v 0.000000 0.600000 0.500000
v 0.900000 0.600000 0.000000
v -0.900000 0.600000 -0.600000
v -0.900000 0.600000 0.600000
v -0.900000 0.600000 0.000000
v 0.100000 0.600000 0.600000
v 1.000000 0.600000 0.000000
v 0.400000 0.600000 -0.600000
v 0.900000 0.600000 0.600000
v 0.900000 0.600000 -0.600000
v 0.900000 0.600000 0.500000
v -0.900000 0.600000 -0.500000
v -0.900000 0.600000 0.500000
v 0.900000 0.600000 -0.500000
v 1.000000 0.600000 -0.500000
v 1.000000 0.600000 0.500000
v -0.900000 0.700000 -0.000435
v 0.000000 0.700000 -0.450435
v -0.360000 0.700000 0.539565
v -0.360000 0.700000 -0.540435
v 0.000000 0.700000 -0.540435
v 0.000000 0.700000 0.539565
v -0.900000 0.700000 -0.450435
v -0.900000 0.700000 0.449565
v 0.000000 0.700000 0.449565
v 0.810000 0.700000 -0.000435
v -0.810000 0.700000 -0.540435
v -0.810000 0.700000 0.539565
v -0.810000 0.700000 -0.000435
v 0.360000 0.700000 0.539565
v 0.900000 0.700000 -0.000435
v 0.360000 0.700000 -0.540435
v 0.810000 0.700000 0.539565
v 0.810000 0.700000 -0.540435
v 0.000000 0.700000 -0.000435
v 0.810000 0.700000 0.449565
v -0.810000 0.700000 -0.450435
v -0.810000 0.700000 0.449565
v 0.810000 0.700000 -0.450435
v 0.900000 0.700000 -0.450435
v 0.900000 0.700000 0.449565
v -0.720000 0.800000 -0.001217
v 0.360000 0.800000 -0.361217
v -0.360000 0.800000 0.430783
v -0.360000 0.800000 -0.433217
v -0.000000 0.800000 -0.433217
v -0.000000 0.800000 0.430783
v -0.720000 0.800000 -0.361217
v -0.720000 0.800000 0.358783
v -0.000000 0.800000 -0.361217
v -0.000000 0.800000 0.358783
v 0.648000 0.800000 -0.001217
v 0.360000 0.800000 0.358783
v -0.648000 0.800000 -0.433217
v -0.648000 0.800000 0.430783
v -0.648000 0.800000 -0.001217
v 0.360000 0.800000 0.430783
v 0.720000 0.800000 -0.001217
v 0.360000 0.800000 -0.433217
v 0.648000 0.800000 0.430783
v 0.648000 0.800000 -0.433217
v -0.360000 0.800000 -0.361217
v -0.360000 0.800000 0.358783
v 0.648000 0.800000 0.358783
v -0.648000 0.800000 -0.361217
v -0.648000 0.800000 0.358783
v 0.648000 0.800000 -0.361217
v 0.720000 0.800000 -0.361217
v 0.720000 0.800000 0.358783
v 0.338289 0.886189 0.358783
v 0.338289 0.886189 -0.361217
v 0.275776 0.961983 0.358783
v 0.275776 0.961983 -0.361217
v 0.180000 1.018238 0.358783
v 0.180000 1.018239 -0.361217
v 0.062513 1.048172 0.358783
v 0.062513 1.048172 -0.361217
v -0.062513 1.048172 0.358783
v -0.062513 1.048172 -0.361217
v -0.180000 1.018238 0.358783
v -0.180000 1.018238 -0.361217
v -0.275776 0.961982 0.358783
v -0.275776 0.961982 -0.361217
v -0.338289 0.886189 0.358783
v -0.338289 0.886189 -0.361217
v -1.000000 -0.100000 0.500000
v -1.000000 -0.100000 -0.500000
v 0.000000 -0.100000 -0.600000
v -1.000000 -0.100000 0.000000
v -0.400000 -0.100000 -0.600000
v -0.100000 -0.100000 0.600000
v -0.900000 -0.100000 -0.600000
v -0.900000 -0.100000 0.600000
v 0.100000 -0.100000 0.600000
v 1.000000 -0.100000 0.000000
v 0.400000 -0.100000 -0.600000
v 0.900000 -0.100000 0.600000
v 0.900000 -0.100000 -0.600000
v 1.000000 -0.100000 -0.500000
v 1.000000 -0.100000 0.500000
v 0.000000 -0.100000 0.000000
vt 0.009277 0.723633
vt 0.028320 0.723633
vt 0.028320 0.817383
vt 0.009277 0.817383
vt 0.046875 0.742676
vt 0.046875 0.723633
vt 0.141113 0.723633
vt 0.141113 0.742676
vt 0.761230 0.953125
vt 0.855469 0.953125
vt 0.855469 0.972168
vt 0.761230 0.972168
vt 0.197266 0.535645
vt 0.178711 0.517090
vt 0.216309 0.517090
vt 0.854980 0.009277
vt 0.854980 0.141113
vt 0.761230 0.141113
vt 0.761230 0.009277
vt 0.347656 0.855469
vt 0.253906 0.855469
vt 0.253906 0.761230
vt 0.347656 0.761230
vt 0.517090 0.216309
vt 0.517090 0.197266
vt 0.610840 0.178711
vt 0.854980 0.216309
vt 0.854980 0.347656
vt 0.761230 0.347656
vt 0.761230 0.216309
vt 0.517090 0.009277
vt 0.610840 0.009277
vt 0.517090 0.141113
vt 0.854980 0.197266
vt 0.761230 0.197266
vt 0.535645 0.723633
vt 0.535645 0.742676
vt 0.516602 0.742676
vt 0.517090 0.723633
vt 0.366699 0.422852
vt 0.385254 0.422852
vt 0.385254 0.517090
vt 0.366699 0.517090
vt 0.009277 0.422852
vt 0.028320 0.422852
vt 0.028320 0.517090
vt 0.009277 0.517090
vt 0.854980 0.159668
vt 0.761230 0.159668
vt 0.385254 0.535645
vt 0.366699 0.535645
vt 0.535645 0.479492
vt 0.535645 0.554688
vt 0.517090 0.554688
vt 0.517090 0.479492
vt 0.629395 0.366699
vt 0.629883 0.385254
vt 0.535645 0.385254
vt 0.535645 0.366699
vt 0.141113 0.780273
vt 0.103516 0.780273
vt 0.103516 0.761230
vt 0.141113 0.761230
vt 0.761230 0.859375
vt 0.855469 0.859375
vt 0.216309 0.422852
vt 0.498047 0.197266
vt 0.498047 0.159668
vt 0.517090 0.178711
vt 0.629883 0.723633
vt 0.629395 0.742676
vt 0.498047 0.554688
vt 0.498047 0.486816
vt 0.000000 0.000000
vt 0.009277 0.028320
vt 0.028320 0.009277
vt 0.037598 0.028320
vt 0.020996 0.044922
vt 0.667480 0.821289
vt 0.761230 0.821289
vt 0.761230 0.840332
vt 0.676758 0.840332
vt 0.234863 0.366699
vt 0.216309 0.385254
vt 0.207031 0.366699
vt 0.223633 0.349609
vt 0.028320 0.385254
vt 0.009277 0.366699
vt 0.020996 0.349609
vt 0.037598 0.366699
vt 0.855469 0.821289
vt 0.845703 0.840332
vt 0.054688 0.332520
vt 0.054688 0.319336
vt 0.122559 0.319336
vt 0.122559 0.332520
vt 0.122070 0.028320
vt 0.207031 0.028320
vt 0.189941 0.062012
vt 0.122559 0.062012
vt 0.517090 0.385254
vt 0.516602 0.366699
vt 0.028320 0.535645
vt 0.009277 0.535645
vt 0.554688 0.854980
vt 0.648438 0.854980
vt 0.648438 0.874023
vt 0.554688 0.874023
vt 0.460449 0.854980
vt 0.460449 0.874023
vt 0.009277 0.667480
vt 0.178711 0.667480
vt 0.178711 0.686035
vt 0.009277 0.686035
vt 0.347656 0.667480
vt 0.347656 0.686035
vt 0.667480 0.953125
vt 0.667480 0.972168
vt 0.761230 0.802734
vt 0.855469 0.802734
vt 0.667480 0.802734
vt 0.189941 0.332520
vt 0.203613 0.319336
vt 0.054688 0.062012
vt 0.041016 0.319336
vt 0.122070 0.366699
vt 0.020996 0.265137
vt 0.041016 0.265137
vt 0.223633 0.044922
vt 0.223633 0.129883
vt 0.203613 0.129883
vt 0.203613 0.075684
vt 0.223633 0.197266
vt 0.203613 0.197266
vt 0.845703 0.990723
vt 0.761230 0.990723
vt 0.216309 0.009277
vt 0.234863 0.028320
vt 0.122559 0.075684
vt 0.054688 0.075684
vt 0.189941 0.319336
vt 0.189941 0.075684
vt 0.450684 0.625977
vt 0.450684 0.693359
vt 0.434570 0.689453
vt 0.420410 0.677734
vt 0.409668 0.659668
vt 0.404297 0.637695
vt 0.404297 0.614258
vt 0.409668 0.592285
vt 0.420410 0.574219
vt 0.434570 0.562500
vt 0.450684 0.558105
vt 0.189941 0.129883
vt 0.189941 0.197266
vt 0.347656 0.742676
vt 0.253906 0.742676
vt 0.253418 0.723633
vt 0.338379 0.723633
vt 0.420410 0.712402
vt 0.420410 0.847656
vt 0.404297 0.847656
vt 0.404297 0.712402
vt 0.159668 0.761230
vt 0.159668 0.742676
vt 0.168945 0.723633
vt 0.041016 0.075684
vt 0.517090 0.159668
vt 0.450684 0.539551
vt 0.434570 0.535156
vt 0.420410 0.523438
vt 0.409668 0.505371
vt 0.404297 0.483398
vt 0.404297 0.459961
vt 0.409668 0.437988
vt 0.420410 0.419922
vt 0.434570 0.408203
vt 0.450684 0.404297
vt 0.450684 0.471680
vt 0.054688 0.129883
vt 0.041016 0.197266
vt 0.054688 0.197266
vt 0.054688 0.265137
vt 0.498047 0.402344
vt 0.216309 0.535645
vt 0.197266 0.554688
vt 0.223633 0.265137
vt 0.203613 0.265137
vt 0.020996 0.197266
vt 0.189941 0.265137
vt 0.159668 0.855469
vt 0.265137 0.554688
vt 0.041016 0.129883
vt 0.020996 0.129883
vt 0.629883 0.479492
vt 0.349609 0.554688
vt 0.212402 0.909180
vt 0.347656 0.909180
vt 0.347656 0.923828
vt 0.212402 0.923828
vt 0.990723 0.470215
vt 0.855469 0.470215
vt 0.855469 0.452148
vt 0.990723 0.452148
vt 0.855469 0.430176
vt 0.990723 0.430176
vt 0.855469 0.406738
vt 0.990723 0.406738
vt 0.855469 0.384277
vt 0.990723 0.384277
vt 0.855469 0.366699
vt 0.990723 0.366699
vt 0.434570 0.712402
vt 0.434570 0.847656
vt 0.667480 0.708496
vt 0.761230 0.708496
vt 0.212402 0.893066
vt 0.347656 0.893066
vt 0.705078 0.009277
vt 0.705078 0.178711
vt 0.610840 0.347656
vt 0.705078 0.347656
vt 0.517090 0.347656
vt 0.855469 0.708496
vt 0.178711 0.535645
vt 0.129883 0.554688
vt 0.044922 0.554688
vt 0.836426 0.670898
vt 0.751953 0.670898
vt 0.751953 0.518555
vt 0.667480 0.670898
vt 0.460449 0.761230
vt 0.554688 0.761230
vt 0.667480 0.366699
vt 0.751953 0.366699
vt 0.667480 0.518555
vt 0.648438 0.761230
vt 0.836426 0.366699
vt 0.178711 0.422852
vt 0.629883 0.554688
vt 0.535645 0.629883
vt 0.517090 0.629883
vt 0.498047 0.622070
vt 0.498047 0.706543
vt 0.629883 0.629883
vt 0.330566 0.705078
vt 0.178711 0.705078
vt 0.026367 0.705078
vt 0.009277 0.573242
vt 0.178711 0.573242
vt 0.347656 0.573242
vt 0.667480 0.859375
vt 0.676758 0.990723
vt 0.639160 0.892578
vt 0.554688 0.892578
vt 0.470215 0.892578
vt 0.742188 0.178711
vt 0.742188 0.347656
vt 0.723633 0.330566
vt 0.723633 0.178711
vt 0.742188 0.009277
vt 0.723633 0.026367
vt 0.836426 0.518555
vt 0.648438 0.554688
vt 0.648438 0.629883
vt 0.648438 0.723633
vt 0.648438 0.479492
vt 0.028320 0.404297
vt 0.178711 0.404297
vt 0.667480 0.689941
vt 0.761230 0.689941
vt 0.855469 0.689941
vt 0.648438 0.385254
vt 0.253906 0.874023
vt 0.159668 0.874023
vt 0.216309 0.404297
vt 0.366699 0.404297
vt 0.347656 0.874023
vt 0.648438 0.366699
vt 0.385254 0.404297
vt 0.009277 0.404297
vt 0.648438 0.742676
vt 0.479492 0.122070
vt 0.479492 0.197266
vt 0.366699 0.197266
vt 0.479492 0.028320
vt 0.479492 0.272461
vt 0.253906 0.178711
vt 0.253906 0.028320
vt 0.366699 0.009277
vt 0.460449 0.009277
vt 0.272461 0.009277
vt 0.479492 0.366699
vt 0.460449 0.385254
vt 0.366699 0.385254
vt 0.253906 0.366699
vt 0.253906 0.216309
vt 0.272461 0.385254
vn 1.000000 0.000000 0.000000
vn -1.000000 0.000000 0.000000
vn 0.000000 0.000000 1.000000
vn 0.000000 0.000000 -1.000000
vn 0.000000 1.000000 0.000000
vn -0.707107 0.000000 -0.707106
vn 0.707107 0.000000 0.707107
vn -0.707107 0.000000 0.707107
vn 0.707107 0.000000 -0.707107
vn 0.000000 -1.000000 0.000000
vn -0.707107 0.000000 -0.707107
vn 0.000000 0.511746 -0.859137
vn 0.484328 0.728597 0.484328
vn -0.707107 0.707106 0.000000
vn -0.485816 0.726612 -0.485816
vn -0.484328 0.728597 0.484328
vn 0.485643 0.874157 0.000000
vn 0.707107 0.000000 -0.707106
vn -0.328837 0.885287 -0.328837
vn -0.327344 0.886392 0.327344
vn -0.485643 0.874157 0.000000
vn 0.000000 0.736201 0.676763
vn 0.000000 0.731292 -0.682064
vn 0.328837 0.885287 -0.328837
vn 0.000000 0.731292 -0.682065
vn -0.743294 -0.668964 0.000000
vn 0.485816 0.726612 -0.485816
vn 0.707107 0.707106 0.000000
vn -0.969709 0.244263 0.000000
vn 0.707107 0.707107 0.000000
vn -0.000000 1.000000 -0.000002
vn 0.327344 0.886392 0.327344
vn 0.000000 0.517228 0.855847
vn 0.000000 1.000000 0.000001
vn 0.000000 0.517229 0.855847
vn 0.000001 1.000000 0.000000
vn 0.000001 1.000000 -0.000002
vn 0.771454 0.636285 0.000000
vn 0.506465 0.862260 0.000000
vn 0.246891 0.969043 0.000000
vn -0.246893 0.969043 0.000000
vn -0.506466 0.862260 0.000000
vn -0.771455 0.636284 0.000000
vn 0.969709 0.244265 0.000000
vn 0.000000 0.517230 0.855847
vn 0.000000 -0.444094 0.895980
vn -0.743295 -0.668964 0.000000
vn 0.743295 -0.668964 0.000000
vn 0.743294 -0.668964 0.000000
vn 0.000000 -0.450316 -0.892869
usemtl Material
s off
f 9/1/1 31/2/1 52/3/1 13/4/1
f 27/5/2 19/6/2 43/7/2 48/8/2
f 38/9/2 49/10/2 73/11/2 64/12/2
f 60/13/3 13/14/3 43/15/3
f 28/16/4 12/17/4 37/18/4 49/19/4
f 36/20/1 20/21/1 44/22/1 55/23/1
f 18/24/5 31/25/5 2/26/5
f 18/27/4 30/28/4 51/29/4 42/30/4
f 28/31/5 14/32/5 2/26/5 12/33/5
f 31/34/4 18/27/4 42/30/4 52/35/4
f 39/36/6 33/37/6 61/38/6 65/39/6
f 25/40/7 36/41/7 55/42/7 46/43/7
f 1/44/8 16/45/8 40/46/8 34/47/8
f 12/17/4 27/48/4 48/49/4 37/18/4
f 46/43/7 55/42/7 78/50/7 71/51/7
f 45/52/4 24/53/4 59/54/4 70/55/4
f 35/56/9 26/57/9 47/58/9 54/59/9
f 52/60/10 48/61/10 43/62/10 13/63/10
f 14/64/2 28/65/2 49/10/2 38/9/2
f 19/66/3 25/40/3 46/43/3 43/15/3
f 9/67/5 19/68/5 23/69/5
f 15/70/11 3/71/11 33/37/11 39/36/11
f 70/55/12 59/54/12 83/72/12 94/73/12
f 27/74/3 23/74/3 31/74/3
f 71/75/13 78/76/13 103/77/13 95/78/13
f 61/79/14 4/80/14 79/81/14 85/82/14
f 65/83/15 61/84/15 85/85/15 89/86/15
f 62/87/16 66/88/16 90/89/16 86/90/16
f 4/80/14 62/91/14 86/92/14 79/81/14
f 111/93/5 128/94/5 118/95/5 104/96/5
f 93/97/17 102/98/17 130/99/17 120/100/17
f 54/59/18 47/58/18 72/101/18 77/102/18
f 34/47/8 40/46/8 66/103/8 62/104/8
f 47/58/4 45/52/4 70/55/4 72/101/4
f 41/105/1 50/106/1 74/107/1 67/108/1
f 51/109/1 41/105/1 67/108/1 75/110/1
f 50/111/3 11/112/3 56/113/3 74/114/3
f 11/112/3 53/115/3 76/116/3 56/113/3
f 53/117/2 38/9/2 64/12/2 76/118/2
f 10/119/2 34/120/2 62/91/2 4/80/2
f 33/121/2 10/119/2 4/80/2 61/79/2
f 89/86/19 85/85/19 110/122/19 116/123/19
f 103/77/17 93/97/17 120/100/17 131/124/17
f 86/90/20 90/89/20 117/125/20 111/93/20
f 79/126/21 86/90/21 111/93/21 104/96/21
f 90/89/22 81/127/22 106/128/22 117/125/22
f 96/129/23 94/130/23 121/131/23 123/132/23
f 102/98/24 96/129/24 123/132/24 130/99/24
f 94/130/25 83/133/25 108/134/25 121/131/25
f 64/12/26 73/11/26 98/135/26 88/136/26
f 85/85/21 79/126/21 104/96/21 110/122/21
f 23/69/5 31/25/5 9/67/5
f 77/137/27 72/138/27 96/129/27 102/98/27
f 131/124/5 120/100/5 114/139/5 126/140/5
f 110/122/5 127/141/5 116/123/5
f 130/99/5 123/132/5 129/142/5
f 113/143/3 115/144/3 132/145/3 134/146/3 136/147/3 138/148/3 140/149/3 142/150/3 144/151/3 146/152/3 125/153/3
f 105/154/5 121/131/5 108/134/5 112/155/5
f 78/156/28 69/157/28 93/158/28 103/159/28
f 146/160/29 147/161/29 124/162/29 125/163/29
f 44/22/1 54/164/1 77/165/1 69/157/1
f 69/157/30 77/165/30 102/166/30 93/158/30
f 131/124/5 126/140/5 122/167/5
f 19/68/5 27/168/5 23/69/5
f 124/169/4 147/170/4 145/171/4 143/172/4 141/173/4 139/174/4 137/175/4 135/176/4 133/177/4 105/178/4 112/179/4
f 115/180/5 126/140/5 114/139/5
f 115/180/5 114/139/5 105/154/5
f 104/96/5 118/95/5 127/141/5 110/122/5
f 111/93/5 117/125/5 128/94/5
f 106/128/31 109/181/31 113/182/31 125/183/31
f 72/101/12 70/55/12 94/73/12 96/184/12
f 105/154/5 114/139/5 129/142/5
f 95/78/32 103/77/32 131/124/32 122/167/32
f 60/13/33 68/185/33 84/186/33
f 83/133/25 82/187/25 107/188/25 108/134/25
f 81/127/22 84/189/22 109/181/22 106/128/22
f 127/141/34 124/190/34 107/188/34 116/123/34
f 20/21/1 35/191/1 54/164/1 44/22/1
f 68/185/35 92/192/35 84/186/35
f 82/187/23 89/86/23 116/123/23 107/188/23
f 122/167/5 126/140/5 115/180/5 119/193/5
f 118/95/36 128/94/36 125/183/36
f 129/142/5 123/132/5 121/131/5 105/154/5
f 117/125/37 106/128/37 125/183/37 128/94/37
f 92/194/22 95/78/22 122/167/22 119/193/22
f 118/95/36 125/183/36 124/190/36
f 26/57/4 21/195/4 45/52/4 47/58/4
f 124/190/36 127/141/36 118/95/36
f 124/190/34 112/155/34 108/134/34 107/188/34
f 120/100/5 130/99/5 129/142/5 114/139/5
f 68/185/35 71/51/35 95/196/35 92/192/35
f 132/197/38 133/198/38 135/199/38 134/200/38
f 134/201/39 135/202/39 137/203/39 136/204/39
f 136/204/40 137/203/40 139/205/40 138/206/40
f 138/206/5 139/205/5 141/207/5 140/208/5
f 140/208/41 141/207/41 143/209/41 142/210/41
f 142/210/42 143/209/42 145/211/42 144/212/42
f 144/213/43 145/214/43 147/161/43 146/160/43
f 43/15/3 46/43/3 71/51/3 68/185/3
f 3/215/2 6/216/2 10/119/2 33/121/2
f 84/189/22 92/194/22 119/193/22 109/181/22
f 119/193/5 115/180/5 113/182/5 109/181/5
f 115/217/44 105/218/44 133/198/44 132/197/44
f 14/32/5 32/219/5 7/220/5 2/26/5
f 17/221/5 2/26/5 7/220/5 29/222/5
f 30/223/5 18/24/5 2/26/5 17/221/5
f 31/25/5 23/69/5 2/26/5
f 12/33/5 2/26/5 27/168/5
f 27/168/5 2/26/5 23/69/5
f 6/216/2 1/224/2 34/120/2 10/119/2
f 57/225/45 84/186/45 81/226/45
f 66/103/35 57/225/35 81/226/35 90/227/35
f 57/225/33 60/13/33 84/186/33
f 57/225/3 13/14/3 60/13/3
f 40/46/3 13/14/3 57/225/3 66/103/3
f 100/228/10 91/229/10 97/230/10
f 91/229/10 99/231/10 97/230/10
f 30/232/1 17/233/1 41/105/1 51/109/1
f 101/234/10 88/235/10 97/230/10
f 80/236/10 101/234/10 97/230/10
f 17/233/1 29/237/1 50/106/1 41/105/1
f 88/235/10 98/238/10 97/230/10
f 16/45/3 9/239/3 13/14/3 40/46/3
f 43/15/3 68/185/3 60/13/3
f 21/195/4 5/240/4 24/53/4 45/52/4
f 55/23/1 44/22/1 69/157/1 78/156/1
f 22/241/4 39/36/4 65/39/4 58/242/4
f 59/54/12 58/242/12 82/243/12 83/72/12
f 58/242/12 65/39/12 89/244/12 82/243/12
f 24/53/4 22/241/4 58/242/4 59/54/4
f 8/245/4 15/70/4 39/36/4 22/241/4
f 5/240/4 8/245/4 22/241/4 24/53/4
f 99/231/10 80/236/10 97/230/10
f 56/113/46 76/116/46 101/246/46 80/247/46
f 74/114/46 56/113/46 80/247/46 99/248/46
f 29/249/3 7/250/3 11/112/3 50/111/3
f 7/250/3 32/251/3 53/115/3 11/112/3
f 32/252/2 14/64/2 38/9/2 53/117/2
f 76/118/47 64/12/47 88/136/47 101/253/47
f 67/108/48 74/107/48 99/254/48 91/255/48
f 75/110/49 67/108/49 91/255/49 100/256/49
f 63/257/50 75/258/50 100/259/50 87/260/50
f 73/261/50 63/257/50 87/260/50 98/262/50
f 98/238/10 87/263/10 97/230/10
f 87/263/10 100/228/10 97/230/10
f 49/19/4 37/18/4 63/257/4 73/261/4
f 37/18/4 48/49/4 63/257/4
f 52/35/4 63/257/4 48/49/4
f 52/35/4 42/30/4 63/257/4
f 42/30/4 51/29/4 75/258/4 63/257/4
f 8/245/4 5/240/4 150/264/4 152/265/4
f 15/70/4 8/245/4 152/265/4 154/266/4
f 5/240/4 21/195/4 158/267/4 150/264/4
f 9/239/3 16/45/3 155/268/3 153/269/3
f 6/216/2 3/215/2 149/270/2 151/271/2
f 1/224/2 6/216/2 151/271/2 148/272/2
f 21/195/4 26/57/4 160/273/4 158/267/4
f 35/191/1 20/21/1 157/274/1 161/275/1
f 25/40/3 19/66/3 156/276/3 159/277/3
f 9/239/3 153/269/3 156/276/3 19/66/3
f 20/21/1 36/20/1 162/278/1 157/274/1
f 26/57/9 35/56/9 161/279/9 160/273/9
f 36/41/7 25/40/7 159/277/7 162/280/7
f 16/45/8 1/44/8 148/281/8 155/268/8
f 3/71/11 15/70/11 154/266/11 149/282/11
f 152/283/10 150/284/10 163/285/10
f 154/286/10 152/283/10 163/285/10
f 150/284/10 158/287/10 163/285/10
f 153/288/10 155/289/10 163/285/10
f 151/290/10 149/291/10 163/285/10
f 148/292/10 151/290/10 163/285/10
f 158/287/10 160/293/10 163/285/10
f 161/294/10 157/295/10 163/285/10
f 159/296/10 156/297/10 163/285/10
f 153/288/10 163/285/10 156/297/10
f 157/295/10 162/298/10 163/285/10
f 160/293/10 161/294/10 163/285/10
f 162/298/10 159/296/10 163/285/10
f 155/289/10 148/292/10 163/285/10
f 149/291/10 154/286/10 163/285/10
